<svg version="1.1" id="Layer_1" xmlns="http://www.w3.org/2000/svg" xmlns:xlink="http://www.w3.org/1999/xlink" x="0px" y="0px" viewBox="0 0 156.5 37.4" style="enable-background:new 0 0 156.5 37.4;" xml:space="preserve">
 <style type="text/css">
  .st0{fill-rule:evenodd;clip-rule:evenodd;fill:#00AA13;}
	.st1{fill-rule:evenodd;clip-rule:evenodd;}
 </style>
 <g id="Home_1_">
  <g id="home-_x2F_-desktop_1_" transform="translate(-164.000000, -9903.000000)">
   <g id="block-_x2F_-footer--_x2F_-desktop_1_" transform="translate(0.000000, 9743.000000)">
    <g id="Gojek-Logo_1_" transform="translate(164.000000, 160.000000)">
     <g id="Group_1_">
      <path id="Combined-Shape_3_" class="st0" d="M18.6,0c10.3,0,18.6,8.3,18.6,18.6c0,7.7-4.7,14.3-11.4,17.2
						c-0.4,0.2-0.9,0.3-1.3,0.3c-1.9,0-3.5-1.5-3.5-3.5c0-1.4,0.9-2.7,2.1-3.2l0,0l0.3-0.1c4.1-1.8,6.9-5.9,6.9-10.6
						C30.2,12.2,25,7,18.6,7S7,12.2,7,18.7c0,4.8,3,9,7.1,10.7l0,0l0.2,0.1c1.2,0.6,2,1.8,2,3.1c0,1.9-1.5,3.5-3.5,3.5
						c-0.5,0-1-0.1-1.3-0.3C4.7,32.9,0,26.3,0,18.6C0,8.3,8.4,0,18.6,0z M18.6,11.6c3.9,0,7,3.1,7,7s-3.1,7-7,7s-7-3.1-7-7
						S14.8,11.6,18.6,11.6z">
      </path>
     </g>
     <path id="Combined-Shape_2_" class="st1" d="M105.4,6.2v24c0,5-2,7.2-7.5,7.2h-3.6v-5.2h3.1c1.6,0,2.2-0.6,2.2-2.1V6.2H105.4z
					 M69.9,6.2v21c0,5.8-4.4,10.2-11,10.2c-4.3,0-8-1.5-10.5-4.1l0,0l3.7-3.6c1.6,1.6,3.5,2.5,6.7,2.5s5.6-2,5.6-4.8l0,0v-2.1h-0.1
					c-1.4,1.6-3.8,2.5-6.6,2.5c-6.3,0-11.1-4.6-11.1-10.8c0-6,4.6-10.7,10.9-10.7c2.9,0,5.3,0.9,6.8,2.4l0,0h0.1V6.2H69.9z
					 M84.8,6.2c6.7,0,11.5,4.7,11.5,10.8s-4.8,10.8-11.5,10.8c-6.7,0-11.5-4.7-11.5-10.8S78.1,6.2,84.8,6.2z M119.8,6.2
					c6.8,0,11.1,4.9,11.1,11l0,0v1.6h-16.6c0.1,2.1,2.8,4.3,6.2,4.3c2.3,0,3.8-0.6,5.6-2.2l0,0l3.8,2.7c-1.6,2-4.8,4.1-9.2,4.1
					c-7.2,0-12-4.3-12-10.8C108.8,10.7,113.4,6.2,119.8,6.2z M139.8,0l0,14.7h0.1l9.2-8.7h7.4l-9.5,9.1l9.5,12.6h-6.6l-6.5-9.1h-0.1
					l-3.5,3.3v5.8h-5.5V0H139.8z M84.8,11.2c-3.6,0-5.8,2.5-5.8,5.8s2.3,5.8,5.8,5.8c3.6,0,5.8-2.5,5.8-5.8
					C90.7,13.6,88.4,11.2,84.8,11.2z M58.6,11.2c-3.8,0-6.2,2.3-6.2,5.6c0,3.6,2.3,5.8,6,5.8c3.3,0,5.8-2,5.8-4.5l0,0h0v-2.4
					C64.2,13.3,61.6,11.2,58.6,11.2z M120,10.8c-3.1,0-5.2,1.6-5.5,4l0,0h11C125.1,12.3,123,10.8,120,10.8z">
     </path>
    </g>
   </g>
  </g>
 </g>
</svg>