<svg version="1.1" id="Layer_1" xmlns:x="ns_extend;" xmlns:i="ns_ai;" xmlns:graph="ns_graphs;" xmlns="http://www.w3.org/2000/svg" xmlns:xlink="http://www.w3.org/1999/xlink" x="0px" y="0px" viewBox="0 0 287.4 65" style="enable-background:new 0 0 287.4 65;" xml:space="preserve">
 <style type="text/css">
  .st0{fill-rule:evenodd;clip-rule:evenodd;fill:#1BA0E2;}
	.st1{fill-rule:evenodd;clip-rule:evenodd;fill:#0D7FCC;}
	.st2{fill-rule:evenodd;clip-rule:evenodd;fill:#434343;}
 </style>
 <metadata>
  <sfw xmlns="ns_sfw;">
   <slices>
   </slices>
   <sliceSourceBounds bottomLeftOrigin="true" height="65" width="287.4" x="-153.2" y="12.6">
   </sliceSourceBounds>
  </sfw>
 </metadata>
 <g id="Train_Booking">
  <g id="Train_Booking-Form_Login-Success" transform="translate(-174.000000, -10.000000)">
   <g id="Logo-_x2F_-Normal-Text-Copy-2" transform="translate(174.000000, 10.000000)">
    <g id="Icon-Blue-Copy" transform="translate(106.348506, 0.000000)">
     <path id="Path-7" class="st0" d="M155.5,15.9C166.8,8.7,181,7.3,181,7.3S166,24.5,162.3,32.4c-1.1,3.5,1.2,6.3,1.2,6.3
					S156.9,31.3,155.5,15.9z">
     </path>
     <path id="Path-7-Copy" class="st1" d="M160.4,13.2c-1.7,0.8-3.3,1.7-4.9,2.7c0.7,7.8,2.8,13.5,4.6,17.3c1,1.8,1.9,3.2,2.6,4.3
					c-0.4-0.7-0.7-1.7-0.8-2.8C161,31,160.1,24.5,160.4,13.2z">
     </path>
     <path id="Path-6" class="st0" d="M145.4,22.6c0,0-0.7-2.6-1-3.4c-0.7-2-1.4-4.1-1.4-7.6c0-4.8,8.2-10,13.3-11.6
					c-1.4,17.6,0.6,23,2.4,28.8c4.3,14.4,14.2,16.5,15.1,17.5c-2.5-0.5-1.1,0.6-1.1,0.6s-4-2.8-12.1-5.1c-8.1-2.3-14.4-2.6-18.2-4.8
					c-3-2.2-3.1-4-4.5-5.3c-4.6-4-16.3-5.7-16.3-5.7l10,1.6c0,0,1.4,0,3-0.6c0.4,0,1.5-1.3,3.9-0.5c1,0.3,0.7,0.7,3.6,1.5
					C145.8,29.1,145.4,22.6,145.4,22.6z">
     </path>
    </g>
    <path id="traveloka" class="st2" d="M4,53c0,10.3,7.8,11.5,11.8,11.5c1.2,0,2.1-0.1,2.1-0.1v-5.2c0,0-0.5,0.1-1.4,0.1
				c-2.3,0-6.6-0.8-6.6-6.9V38.6h7.4v-4.8H9.9V25H4.2v8.9H0v4.8h4V53z M23.3,64.3h5.9V51.7c0-1.9,0.2-3.8,0.7-5.5
				c1.4-4.6,4.9-7.2,8.6-7.2c0.9,0,1.7,0.2,1.7,0.2v-5.8c0,0-0.7-0.1-1.5-0.1c-4.7,0-8.3,3.5-9.7,8h-0.1c0,0,0.1-1,0.1-2.3v-5.4
				h-5.7V64.3z M42.3,55.6c0,6.2,5.2,9.4,10.5,9.4c7.4,0,9.9-6.1,9.9-6.1h0.1c0,0-0.1,1-0.1,2.4v2.9h5.5V44.8
				c0-7.8-4.4-12.1-12.2-12.1c-7.1,0-11.5,3.7-11.5,3.7l2.4,4.3c0,0,3.8-3,8.6-3c3.9,0,6.8,1.7,6.8,6.8V45h-1.3
				C55.7,45,42.3,45.4,42.3,55.6L42.3,55.6z M48.2,55.3c0-5.5,8-5.8,12.5-5.8h1.5v1c0,4.6-3.2,9.8-8.2,9.8
				C50.2,60.2,48.2,57.8,48.2,55.3L48.2,55.3z M83,64.3h6.8l11.4-30.8H95l-7.5,20.8c-0.6,1.7-1,4.2-1.1,4.2h-0.1
				c-0.1,0-0.4-2.5-1-4.2l-7.5-20.8h-6.3L83,64.3z M102.7,48.9c0,9.1,6.6,16.1,16.3,16.1c7.4,0,11.9-4.4,11.9-4.4l-2.4-4.3
				c0,0-3.8,3.6-9.1,3.6c-5.5,0-10.3-3.4-10.6-10.2h22.4c0,0,0.2-1.8,0.2-2.6c0-8-4.6-14.4-13.3-14.4
				C109.4,32.7,102.7,39.1,102.7,48.9L102.7,48.9z M109,45.3c0.9-5.1,4.5-7.9,9-7.9c4,0,7.2,2.6,7.4,7.9H109z M136.9,55.9
				c0,7.7,4.9,8.6,8.3,8.6c1,0,1.9-0.1,1.9-0.1v-5.2c0,0-0.5,0.1-1,0.1c-1.8,0-3.3-0.7-3.3-4.4V21.3h-5.9V55.9z M149.8,48.8
				c0,9.4,7.4,16.2,16.6,16.2S183,58.2,183,48.8c0-9.3-7.4-16.1-16.6-16.1S149.8,39.5,149.8,48.8L149.8,48.8z M155.8,48.8
				c0-6.4,4.8-11,10.6-11c5.8,0,10.6,4.6,10.6,11c0,6.5-4.7,11.1-10.6,11.1C160.6,59.9,155.8,55.3,155.8,48.8L155.8,48.8z
				 M188.8,64.3h5.9V49.8h4.4l9.2,14.5h6.9l-11.4-17.1V47l10.2-13.6h-6.7L199,44.8h-4.3V21.3h-5.9V64.3z M216.9,55.6
				c0,6.2,5.2,9.4,10.5,9.4c7.4,0,9.9-6.1,9.9-6.1h0.1c0,0-0.1,1-0.1,2.4v2.9h5.5V44.8c0-7.8-4.4-12.1-12.2-12.1
				c-7.1,0-11.5,3.7-11.5,3.7l2.4,4.3c0,0,3.8-3,8.6-3c3.9,0,6.8,1.7,6.8,6.8V45h-1.3C230.3,45,216.9,45.4,216.9,55.6L216.9,55.6z
				 M222.9,55.3c0-5.5,8-5.8,12.5-5.8h1.5v1c0,4.6-3.2,9.8-8.2,9.8C224.8,60.2,222.9,57.8,222.9,55.3L222.9,55.3z">
    </path>
   </g>
  </g>
 </g>
</svg>